<?xml version="1.0" encoding="utf-8"?>
<!-- Generator: Adobe Illustrator 16.0.0, SVG Export Plug-In . SVG Version: 6.00 Build 0)  -->
<!DOCTYPE svg PUBLIC "-//W3C//DTD SVG 1.1//EN" "http://www.w3.org/Graphics/SVG/1.1/DTD/svg11.dtd">
<svg version="1.1" id="圖層_1" xmlns="http://www.w3.org/2000/svg" xmlns:xlink="http://www.w3.org/1999/xlink" x="0px" y="0px"
	 width="760px" height="280px" viewBox="0 0 760 280" enable-background="new 0 0 760 280" xml:space="preserve">
<rect x="0" opacity="0.3" fill="#809EC9" enable-background="new    " width="760" height="280"/>
<g opacity="0.1">
	<g>
		<path fill="#FFFFFF" d="M733.722,56.504L555.137-15.648c-29.718-12.006-63.542,2.353-75.549,32.071l-47.324,117.129
			c-12.006,29.718,2.353,63.54,32.07,75.548l25.629,10.354c1.22,0.49,1.809,1.883,1.314,3.102l-23.345,57.776
			c-2.76,6.83,4.26,13.521,10.949,10.435l86.662-39.966c0.599-0.272,1.28-0.291,1.892-0.046l75.481,30.497
			c29.718,12.007,63.542-2.353,75.548-32.065l47.323-117.128C777.797,102.337,763.439,68.511,733.722,56.504z M656.687,164.164
			l-80.295,34.092c-2.583,1.096-5.565-0.109-6.664-2.691l-34.013-80.131c-8.144-19.183,0.808-41.333,19.987-49.475
			c19.184-8.142,41.332,0.808,49.475,19.989l4.525,10.662c1.098,2.583,4.082,3.79,6.664,2.692l10.834-4.598
			c19.185-8.143,41.332,0.807,49.478,19.989C684.818,133.872,675.869,156.021,656.687,164.164z"/>
	</g>
</g>
</svg>
